<svg width="21" height="21" viewBox="0 0 21 21" fill="none" xmlns="http://www.w3.org/2000/svg">
<path fill-rule="evenodd" clip-rule="evenodd" d="M5.01782 0.621582C2.2564 0.621582 0.0178223 2.86016 0.0178223 5.62158V15.6216C0.0178223 18.383 2.2564 20.6216 5.01782 20.6216H15.0178C17.7793 20.6216 20.0178 18.383 20.0178 15.6216V5.62158C20.0178 2.86016 17.7793 0.621582 15.0178 0.621582H5.01782ZM10.0179 15.7819C12.8677 15.7819 15.1779 13.4717 15.1779 10.6219C15.1779 7.77213 12.8677 5.46191 10.0179 5.46191C7.16812 5.46191 4.85791 7.77213 4.85791 10.6219C4.85791 13.4717 7.16812 15.7819 10.0179 15.7819ZM16.9788 5.33977C16.9788 5.98558 16.4553 6.50912 15.8095 6.50912C15.1637 6.50912 14.6401 5.98558 14.6401 5.33977C14.6401 4.69395 15.1637 4.17041 15.8095 4.17041C16.4553 4.17041 16.9788 4.69395 16.9788 5.33977ZM10.0178 13.9766C11.8709 13.9766 13.3731 12.4744 13.3731 10.6214C13.3731 8.76831 11.8709 7.26611 10.0178 7.26611C8.16479 7.26611 6.6626 8.76831 6.6626 10.6214C6.6626 12.4744 8.16479 13.9766 10.0178 13.9766Z" fill="black"/>
</svg>
