<svg width="500" height="500" viewBox="0 0 500 500" fill="none" xmlns="http://www.w3.org/2000/svg">
<path d="M500 250C500 111.929 388.071 0 250 0C111.929 0 0 111.929 0 250C0 388.071 111.929 500 250 500C388.071 500 500 388.071 500 250Z" fill="black"/>
<path d="M128.763 90C107.35 90 90 107.389 90 128.842C90 150.295 107.35 167.684 128.763 167.684C150.177 167.684 167.526 150.295 167.526 128.842C167.526 107.389 150.177 90 128.763 90V90ZM331.789 191.132V191.158C327.411 191.142 323.163 191.318 317.605 191.605C305.416 192.236 276.949 205.443 266.526 226.526C266.526 217.373 266.632 208.966 266.632 196.421C254.146 196.421 237.807 196.5 203.684 196.5C203.684 234.808 203.263 370.471 203.263 410H269.342C269.342 386.55 269.658 327.647 269.658 290.658C269.658 278.237 277.166 249.553 307.974 249.553C335.948 249.553 343.789 273.13 343.789 290.658C343.789 329.18 343.5 383.634 343.5 410H409.974C409.974 384.228 410.21 314.221 409.421 270.053C408.463 216.424 375.888 193.543 346.658 191.737C340.643 191.365 336.168 191.147 331.789 191.132V191.132ZM95.5789 197.342V409.895H161.842V197.342H95.5789V197.342Z" fill="white"/>
</svg>
