<svg width="61" height="109" viewBox="0 0 61 109" fill="none" xmlns="http://www.w3.org/2000/svg">
<path fill-rule="evenodd" clip-rule="evenodd" d="M8.11035 0.800781C3.69207 0.800781 0.110352 4.3825 0.110352 8.80078V100.801C0.110352 105.219 3.69207 108.801 8.11035 108.801H52.1104C56.5286 108.801 60.1104 105.219 60.1104 100.801V8.80078C60.1104 4.3825 56.5286 0.800781 52.1104 0.800781H8.11035ZM55.1104 15.8008H5.11035V90.8008H55.1104V15.8008ZM18.2585 9.53893C18.2585 8.83247 18.8312 8.25977 19.5377 8.25977H40.6831C41.3895 8.25977 41.9622 8.83247 41.9622 9.53893C41.9622 10.2454 41.3895 10.8181 40.6831 10.8181H19.5377C18.8312 10.8181 18.2585 10.2454 18.2585 9.53893ZM30.1104 104.801C32.8718 104.801 35.1104 102.562 35.1104 99.8008C35.1104 97.0394 32.8718 94.8008 30.1104 94.8008C27.3489 94.8008 25.1104 97.0394 25.1104 99.8008C25.1104 102.562 27.3489 104.801 30.1104 104.801Z" fill="#FF668A"/>
</svg>
