<svg width="481" height="181" viewBox="0 0 481 181" fill="none" xmlns="http://www.w3.org/2000/svg">
<path d="M20.4856 179.628C13.2103 179.628 7.97725 178.361 4.78635 175.827C1.59545 173.293 0 169.049 0 163.094C0 157.14 2.10599 139.149 6.31798 109.123C10.6576 78.9701 12.8274 57.4955 12.8274 44.6995C12.8274 31.7768 11.934 23.3517 10.1471 19.4242C23.1659 20.4377 31.7176 25.5055 35.8019 34.6274C45.6299 29.3063 56.4151 26.6457 68.1577 26.6457C80.0278 26.6457 89.3452 30.3198 96.1099 37.668C103.002 44.8895 106.448 53.8214 106.448 64.4637C106.448 77.6398 101.598 89.549 91.898 100.191C87.1754 105.259 81.0489 109.376 73.5184 112.544C66.1155 115.711 57.883 117.295 48.8208 117.295C44.9917 117.295 41.3541 117.041 37.9079 116.535L37.3335 108.553C37.8441 108.553 38.3546 108.553 38.8652 108.553C53.2881 108.553 64.7753 103.232 73.3269 92.5896C79.1982 84.988 82.1338 77.0063 82.1338 68.6446C82.1338 56.3553 77.0922 48.2469 67.0089 44.3194C58.4573 41.1521 48.8846 41.7856 38.2908 46.2198V46.5999C38.2908 51.4143 36.4401 67.1876 32.7387 93.9199C29.1648 120.526 27.3779 142.76 27.3779 160.624C27.3779 168.606 27.7608 174.814 28.5267 179.248C24.4423 179.501 21.7619 179.628 20.4856 179.628Z" fill="#E88564"/>
<path d="M157.393 81.1872C149.097 81.1872 141.694 86.7617 135.185 97.9107C128.675 108.933 125.42 119.955 125.42 130.978C125.42 154.036 131.419 165.565 143.417 165.565C151.969 165.565 158.925 160.054 164.286 149.032C169.646 137.883 172.327 125.403 172.327 111.594C172.327 91.3227 167.349 81.1872 157.393 81.1872ZM169.263 67.3143C176.922 67.3143 183.431 71.0517 188.792 78.5266C194.152 86.0016 196.833 96.0103 196.833 108.553C196.833 122.616 193.961 135.539 188.217 147.321C181.836 160.624 172.773 169.809 161.031 174.877C154.394 177.791 147.119 179.248 139.205 179.248C128.101 179.248 118.4 175.004 110.104 166.515C101.935 157.9 97.851 145.611 97.851 129.647C97.851 113.557 101.808 99.4311 109.721 87.2685C117.635 74.9792 128.101 67.2509 141.12 64.0836C142.524 64.0836 143.8 64.527 144.949 65.4139C146.225 66.174 146.863 66.9976 146.863 67.8844C133.972 76.7529 126.25 89.1055 123.697 104.942C126.378 97.8474 129.632 91.7028 133.461 86.5083C137.418 81.3139 141.503 77.3864 145.715 74.7258C153.756 69.7848 161.605 67.3143 169.263 67.3143Z" fill="#E88564"/>
<path d="M272.493 66.3641C279.13 66.3641 284.172 67.5677 287.618 69.9748C291.064 72.382 292.787 76.8163 292.787 83.2777C292.787 85.3047 291.575 94.2366 289.15 110.073C286.724 125.783 285.512 139.276 285.512 150.552C285.512 161.828 286.724 171.773 289.15 180.388C279.577 177.347 272.94 173.04 269.238 167.465C265.537 161.891 263.686 154.986 263.686 146.751C263.686 143.584 264.388 136.426 265.792 125.277C261.835 139.72 255.773 151.882 247.604 161.764C239.563 171.52 231.969 176.397 224.821 176.397C210.143 176.397 202.804 165.882 202.804 144.851C202.804 137.883 203.825 128.19 205.867 115.775C208.037 103.232 209.122 93.7299 209.122 87.2685C209.122 80.8071 208.228 74.2824 206.441 67.6944C217.035 67.6944 224.693 69.088 229.416 71.8752C234.266 74.5358 236.691 79.9203 236.691 88.0286C236.691 92.3362 235.351 100.888 232.671 113.684C229.99 126.48 228.65 136.109 228.65 142.57C228.65 151.945 231.203 156.633 236.308 156.633C238.861 156.633 241.797 154.923 245.115 151.502C248.434 147.955 251.625 143.33 254.688 137.629C257.751 131.801 260.304 124.58 262.346 115.965C264.516 107.223 265.601 98.4175 265.601 89.549C265.601 80.5537 265.218 72.9521 264.452 66.7442C268.281 66.4908 270.961 66.3641 272.493 66.3641Z" fill="#E88564"/>
<path d="M323.122 133.448C323.122 154.606 329.376 165.185 341.885 165.185C346.735 165.185 351.649 163.538 356.627 160.244C361.604 156.95 365.944 152.389 369.645 146.561C374.24 147.575 376.538 149.918 376.538 153.592C371.177 162.841 364.604 169.429 356.818 173.357C349.032 177.284 341.246 179.248 333.461 179.248C322.995 179.248 314.06 175.447 306.657 167.845C299.382 160.117 295.744 148.968 295.744 134.398C295.744 115.775 300.913 99.8745 311.252 86.6984C321.591 73.3956 335.567 66.7442 353.18 66.7442C363.008 66.7442 370.411 69.1513 375.389 73.9657C380.367 78.6533 382.856 84.2912 382.856 90.8793C382.856 97.3406 380.814 102.978 376.729 107.793C372.773 112.607 367.667 115.014 361.413 115.014C358.35 115.014 355.286 114.381 352.223 113.114C354.138 110.96 355.925 107.603 357.584 103.042C359.243 98.3542 360.073 94.0466 360.073 90.1191C360.073 82.3908 356.69 78.5266 349.926 78.5266C342.012 78.5266 335.567 84.2912 330.589 95.8203C325.611 107.349 323.122 119.892 323.122 133.448Z" fill="#E88564"/>
<path d="M411.176 117.675C415.388 103.359 421.961 91.3227 430.896 81.5673C439.83 71.6852 448.127 66.7442 455.785 66.7442C463.571 66.7442 469.059 69.088 472.25 73.7756C475.568 78.3366 477.228 84.6079 477.228 92.5896C477.228 100.445 475.951 111.53 473.399 125.847C470.974 140.163 469.761 150.615 469.761 157.203C469.761 163.665 470.591 168.416 472.25 171.456C473.909 174.37 476.717 176.904 480.674 179.058C479.015 179.185 476.653 179.248 473.59 179.248C462.869 179.248 455.211 177.601 450.616 174.307C446.148 171.013 443.915 165.248 443.915 157.013C443.915 152.326 445.191 143.204 447.744 129.647C450.296 115.965 451.573 105.766 451.573 99.051C451.573 90.6892 449.02 86.5083 443.915 86.5083C440.851 86.5083 437.469 88.2187 433.768 91.6394C430.066 95.0601 426.492 99.7478 423.046 105.702C419.728 111.53 416.92 119.069 414.622 128.317C412.325 137.566 411.176 146.814 411.176 156.063C411.176 165.185 411.559 171.963 412.325 176.397C408.24 176.651 405.56 176.777 404.284 176.777C397.008 176.777 391.775 175.574 388.584 173.167C385.394 170.633 383.798 166.642 383.798 161.194C383.798 155.746 384.883 145.357 387.053 130.028C393.945 82.8976 397.391 47.1067 397.391 22.6549C397.391 11.6325 396.626 4.22097 395.094 0.420166C404.667 2.95404 411.176 6.81819 414.622 12.0126C418.196 17.0803 419.983 24.3019 419.983 33.6772C419.983 40.0119 418.707 53.3147 416.154 73.5856C413.729 93.8565 412.069 108.553 411.176 117.675Z" fill="#E88564"/>
</svg>
