<svg width="182" height="150" viewBox="0 0 182 150" fill="none" xmlns="http://www.w3.org/2000/svg">
<g clip-path="url(#clip0)">
<path d="M76.5231 -4.49844e-05C70.9488 -0.00505138 65.4394 1.16116 60.3733 3.41848C75.215 8.26546 88.3714 21.2925 88.3714 36.627C88.3714 51.9615 75.215 64.9764 60.3733 69.8111C65.4355 72.0824 70.9463 73.2572 76.5231 73.2541C97.6412 73.2541 117.275 56.8574 117.275 36.627C117.275 16.3967 97.6412 -4.49844e-05 76.5231 -4.49844e-05Z" fill="#1A9BB0"/>
<path d="M118.533 138.56C109.326 133.371 109.137 118.647 107.842 107.61C107.565 105.278 107.238 102.922 106.81 100.59C106.81 100.456 106.81 100.322 106.722 100.199C106.729 100.155 106.729 100.11 106.722 100.065C102.848 81.2266 91.9812 76.7459 76.5357 76.7459C70.9596 76.7369 65.4469 77.8945 60.3733 80.14C70.0456 83.2778 75.8062 89.5044 77.1646 103.227C77.3407 104.876 77.4916 106.548 77.6928 107.94C79.4286 120.466 79.1644 137.657 91.1007 145.788C96.245 149.304 102.773 149.976 108.898 149.927C115.376 149.927 123.589 147.973 128.167 143.261C129.113 142.37 129.877 141.313 130.419 140.147C125.325 140.892 121.476 140.208 118.533 138.56Z" fill="#1A9BB0"/>
<path d="M170.102 138.56C160.895 133.371 160.706 118.647 159.41 107.61C159.134 105.278 158.807 102.922 158.379 100.59C158.379 100.456 158.379 100.322 158.291 100.199C158.298 100.155 158.298 100.11 158.291 100.065C154.417 81.2266 143.55 76.7459 128.104 76.7459C122.528 76.7369 117.016 77.8945 111.942 80.14C121.614 83.2778 127.375 89.5044 128.733 103.227C128.909 104.876 129.06 106.548 129.262 107.94C130.997 120.466 130.733 137.657 142.669 145.788C147.814 149.304 154.342 149.976 160.467 149.927C166.945 149.927 175.158 147.973 179.736 143.261C180.682 142.37 181.445 141.313 181.988 140.147C176.894 140.892 173.045 140.208 170.102 138.56Z" fill="#117383"/>
<path d="M170.102 11.4154C160.895 16.6043 160.706 31.3283 159.41 42.3653C159.134 44.6972 158.807 47.0536 158.379 49.3855C158.379 49.5198 158.379 49.6419 158.291 49.7762C158.297 49.8208 158.297 49.8659 158.291 49.9105C154.417 68.749 143.55 73.2297 128.104 73.2297C122.527 73.2403 117.013 72.0782 111.942 69.8234C121.614 66.6979 127.375 60.4713 128.733 46.7483C128.909 45.1001 129.06 43.4275 129.262 42.0357C130.997 29.5092 130.733 12.3189 142.669 4.18769C147.814 0.634869 154.342 0 160.467 0C166.945 0 175.158 1.95344 179.736 6.65392C180.679 7.54707 181.443 8.60282 181.988 9.76722C176.894 9.08351 173.045 9.76722 170.102 11.4154Z" fill="#117383"/>
<path d="M11.8986 129.416C21.118 120.027 21.2941 93.3991 22.5896 73.4251C22.8663 69.213 23.2059 64.9642 23.621 60.7277C23.621 60.4835 23.621 60.2638 23.7091 60.0196C23.7971 59.7754 23.7091 59.8609 23.7091 59.7754C27.671 25.639 38.4879 17.5444 53.9082 17.5444C59.8641 17.6697 65.5833 19.8315 70.0581 23.6489C60.3732 29.3627 54.6377 40.6195 53.2668 65.4526C53.1033 68.4316 52.9397 71.4594 52.7511 73.9989C51.0028 96.6589 51.2669 127.719 39.3432 142.528C34.1989 148.889 27.671 150.11 21.5331 150.024C17.5007 149.881 13.5826 148.686 10.1915 146.563C6.80036 144.44 4.06173 141.469 2.26399 137.962C1.26188 136.18 0.500923 134.28 0 132.309C5.10657 133.591 8.96793 132.358 11.8986 129.416Z" fill="#1A9BB0"/>
</g>
<defs>
<clipPath id="clip0">
<rect width="182" height="150" fill="white"/>
</clipPath>
</defs>
</svg>
